<svg id="Capa_1" data-name="Capa 1" xmlns="http://www.w3.org/2000/svg" viewBox="0 0 745 800"><defs><style>.cls-1{fill:red;}.cls-2{fill:#fff;}</style></defs><title>logo final exportar</title><ellipse class="cls-1" cx="372.5" cy="400" rx="372.5" ry="400"/><path class="cls-2" d="M417,572h20.11q4.56,44.24,9.18,88.46l.38,0q4.92-44.22,10-88.43h22.76q4.8,42.39,9.66,84.77l.38,0q4.71-42.37,9.5-84.74h18Q510,626.45,503.16,680.93c-10.38,1-15.57,1.47-25.94,2.58q-4.7-37.43-9.31-74.85h-.38q-4.86,38.49-9.61,77c-11,1.3-16.56,2-27.58,3.47Q423.59,630.59,417,572Z" transform="translate(-293)"/><path class="cls-2" d="M527.54,572h20.87q-.13,52.68-.28,105.37c-8.36.55-12.53.86-20.88,1.51Q527.4,625.43,527.54,572Z" transform="translate(-293)"/><path class="cls-2" d="M564,572h20.87l-.09,43.55Q598,593.73,611.39,572h20.87q-12.5,18.78-24.92,37.61,12.54,32.13,25.2,64.19c-8.76.17-13.13.27-21.88.54q-8.85-22.62-17.6-45.26c-3.35,5.31-5,8-8.38,13.33q0,16.47-.07,32.92c-8.37.38-12.55.6-20.91,1.08Q563.83,624.21,564,572Z" transform="translate(-293)"/><path class="cls-2" d="M642.5,572h20.86V673.51c-8.37,0-12.56,0-20.93.14Q642.46,622.83,642.5,572Z" transform="translate(-293)"/><path class="cls-2" d="M678.92,572h55.2c0,5.88,0,8.82,0,14.69l-34.35-.14,0,28.37c10.78.09,16.18.15,27,.31l0,14.66c-10.79-.21-16.19-.3-27-.42q0,22.2,0,44.38c-8.37-.16-12.56-.22-20.93-.29Q678.93,622.79,678.92,572Z" transform="translate(-293)"/><path class="cls-2" d="M744.17,572H765q.11,44.73.22,89.45,17.19.88,34.37,2c0,6.09,0,9.14,0,15.23q-27.63-2-55.28-3.35Q744.29,623.65,744.17,572Z" transform="translate(-293)"/><path class="cls-2" d="M809.43,572h20.86q.15,54.64.29,109.28c-8.34-.79-12.51-1.15-20.86-1.84Q809.57,625.72,809.43,572Z" transform="translate(-293)"/><path class="cls-2" d="M864.35,627.11Q853,599.48,841.29,572h22q7.14,18.42,14.09,36.91l.38,0Q885,590.5,892.13,572h19.73Q900.61,600.35,889,628.56q12.28,31.13,24,62.44c-8.75-1.24-13.13-1.83-21.89-3q-7.49-20.87-15.17-41.67l-.38,0q-7.63,19-15.45,38c-7.87-.87-11.8-1.29-19.68-2.08Q852.61,654.76,864.35,627.11Z" transform="translate(-293)"/><rect class="cls-2" x="124" y="273" width="496" height="284"/><rect x="124" y="312" width="496" height="245"/><rect class="cls-2" x="124" y="224" width="496" height="49"/><rect x="374.38" y="274.3" width="232.23" height="49" transform="translate(381.16 842.98) rotate(-140)"/><rect x="480.35" y="242.44" width="222.88" height="49" transform="translate(580.55 851.82) rotate(-140)"/><rect x="629.35" y="242.74" width="226.16" height="49" transform="translate(846.39 949.19) rotate(-140)"/><rect x="792.98" y="218.79" width="160.96" height="49" transform="translate(1093.19 991.11) rotate(-140)"/><rect class="cls-1" x="124" y="150" width="496" height="74"/><rect class="cls-1" x="620" y="245" width="68" height="74"/><rect class="cls-1" x="56" y="199" width="68" height="100"/></svg>