<?xml version="1.0" encoding="utf-8"?>
<!-- Generator: Adobe Illustrator 23.1.0, SVG Export Plug-In . SVG Version: 6.00 Build 0)  -->
<svg version="1.1" id="Capa_1" xmlns="http://www.w3.org/2000/svg" xmlns:xlink="http://www.w3.org/1999/xlink" x="0px" y="0px"
	 viewBox="0 0 1280 800" style="enable-background:new 0 0 1280 800;" xml:space="preserve">
<style type="text/css">
	.st0{fill:#FF0000;}
	.st1{fill:#FFFFFF;}
</style>
<ellipse class="st0" cx="665.5" cy="400" rx="372.5" ry="400"/>
<g>
	<g>
		<path class="st1" d="M416.95,572c8.04,0,12.06,0,20.11,0c3.04,29.49,6.1,58.98,9.18,88.46c0.15-0.01,0.23-0.02,0.38-0.04
			c3.29-29.48,6.62-58.95,9.98-88.43c9.11,0,13.66,0,22.76,0c3.2,28.26,6.42,56.51,9.66,84.77c0.15-0.01,0.23-0.02,0.38-0.03
			c3.14-28.25,6.31-56.49,9.51-84.74c7.21,0,10.81,0,18.02,0c-4.63,36.3-9.22,72.61-13.76,108.93c-10.39,0.95-15.58,1.47-25.95,2.58
			c-3.12-24.95-6.23-49.9-9.31-74.85c-0.15,0.01-0.23,0.01-0.38,0.01c-3.23,25.66-6.44,51.33-9.61,77c-11.04,1.3-16.56,2-27.58,3.48
			C425.84,650.11,421.37,611.05,416.95,572z"/>
		<path class="st1" d="M527.54,572c8.35,0,12.52,0,20.87,0c-0.09,35.12-0.19,70.25-0.28,105.37c-8.36,0.55-12.53,0.85-20.88,1.51
			C527.35,643.25,527.45,607.63,527.54,572z"/>
		<path class="st1" d="M563.96,572c8.35,0,12.52,0,20.87,0c-0.03,14.52-0.06,29.03-0.09,43.55c8.83-14.55,17.71-29.07,26.65-43.55
			c8.35,0,12.52,0,20.87,0c-8.33,12.52-16.64,25.06-24.91,37.61c8.36,21.41,16.76,42.81,25.19,64.19
			c-8.75,0.16-13.13,0.27-21.88,0.54c-5.9-15.08-11.76-30.17-17.59-45.27c-3.35,5.31-5.03,7.98-8.39,13.34
			c-0.02,10.97-0.05,21.95-0.07,32.92c-8.36,0.38-12.55,0.6-20.9,1.07C563.79,641.61,563.88,606.8,563.96,572z"/>
		<path class="st1" d="M642.5,572c8.35,0,12.52,0,20.87,0c0,33.84,0,67.67-0.01,101.51c-8.37,0.01-12.56,0.04-20.93,0.14
			C642.45,639.77,642.47,605.88,642.5,572z"/>
		<path class="st1" d="M678.92,572c18.4,0,36.8,0,55.2,0c0.01,5.88,0.02,8.82,0.03,14.7c-11.45-0.06-22.9-0.11-34.35-0.14
			c0.01,9.46,0.02,18.92,0.03,28.37c10.79,0.09,16.18,0.15,26.97,0.31c0.01,5.86,0.02,8.79,0.03,14.66
			c-10.79-0.21-16.19-0.3-26.98-0.42c0.02,14.79,0.03,29.59,0.05,44.38c-8.37-0.17-12.56-0.22-20.93-0.29
			C678.94,639.71,678.93,605.85,678.92,572z"/>
		<path class="st1" d="M744.17,572c8.35,0,12.52,0,20.87,0c0.07,29.82,0.15,59.63,0.22,89.45c11.46,0.59,22.91,1.25,34.37,1.96
			c0.02,6.09,0.03,9.14,0.04,15.23c-18.42-1.34-36.83-2.46-55.28-3.35C744.32,640.86,744.24,606.43,744.17,572z"/>
		<path class="st1" d="M809.43,572c8.35,0,12.52,0,20.87,0c0.09,36.43,0.19,72.85,0.28,109.28c-8.34-0.78-12.51-1.15-20.85-1.84
			C809.62,643.63,809.53,607.81,809.43,572z"/>
		<path class="st1" d="M864.35,627.11c-7.56-18.42-15.21-36.81-23.06-55.11c8.8,0,13.2,0,22,0c4.76,12.28,9.46,24.58,14.09,36.91
			c0.15,0.01,0.23,0.01,0.38,0.01c4.85-12.29,9.63-24.6,14.36-36.93c7.89,0,11.84,0,19.73,0c-7.51,18.9-15.1,37.77-22.89,56.56
			c8.19,20.75,16.2,41.56,24.03,62.44c-8.75-1.24-13.13-1.83-21.89-2.97c-5-13.91-10.06-27.8-15.18-41.67
			c-0.15-0.01-0.23-0.02-0.38-0.03c-5.08,12.69-10.23,25.35-15.44,37.98c-7.87-0.87-11.81-1.29-19.69-2.08
			C848.55,663.92,856.49,645.53,864.35,627.11z"/>
	</g>
</g>
<rect x="417" y="273" class="st1" width="496" height="284"/>
<rect x="417" y="312" width="496" height="245"/>
<rect x="417" y="224" class="st1" width="496" height="49"/>
<rect x="374.38" y="274.3" transform="matrix(-0.766 -0.6428 0.6428 -0.766 674.1638 842.9761)" width="232.23" height="49"/>
<rect x="480.35" y="242.44" transform="matrix(-0.766 -0.6428 0.6428 -0.766 873.5521 851.8213)" width="222.88" height="49"/>
<rect x="629.35" y="242.74" transform="matrix(-0.766 -0.6428 0.6428 -0.766 1139.391 949.1911)" width="226.16" height="49"/>
<rect x="792.98" y="218.79" transform="matrix(-0.766 -0.6428 0.6428 -0.766 1386.1871 991.1061)" width="160.96" height="49"/>
<rect x="417" y="150" class="st0" width="496" height="74"/>
<rect x="913" y="245" class="st0" width="68" height="74"/>
<rect x="349" y="199" class="st0" width="68" height="100"/>
</svg>
